<svg xmlns="http://www.w3.org/2000/svg" xmlns:xlink="http://www.w3.org/1999/xlink" width="1000" zoomAndPan="magnify" viewBox="0 0 750 172.499995" height="230" preserveAspectRatio="xMidYMid meet" version="1.0"><defs><g/><clipPath id="a1e92d43e9"><path d="M 289 9.355469 L 406.65625 9.355469 L 406.65625 156.648438 L 289 156.648438 Z M 289 9.355469 " clip-rule="nonzero"/></clipPath><clipPath id="e3716e6ab6"><path d="M 303.363281 22.4375 L 394.34375 22.4375 L 394.34375 113.417969 L 303.363281 113.417969 Z M 303.363281 22.4375 " clip-rule="nonzero"/></clipPath><clipPath id="05a8a4ccaf"><path d="M 311.484375 30.558594 L 386.222656 30.558594 L 386.222656 105.296875 L 311.484375 105.296875 Z M 311.484375 30.558594 " clip-rule="nonzero"/></clipPath><clipPath id="9d88d28191"><path d="M 386.222656 67.929688 C 386.222656 88.566406 369.492188 105.296875 348.851562 105.296875 C 328.214844 105.296875 311.484375 88.566406 311.484375 67.929688 C 311.484375 47.289062 328.214844 30.558594 348.851562 30.558594 C 369.492188 30.558594 386.222656 47.289062 386.222656 67.929688 Z M 386.222656 67.929688 " clip-rule="nonzero"/></clipPath><clipPath id="8a3ad532bf"><path d="M 386.222656 67.929688 C 386.222656 88.566406 369.492188 105.296875 348.851562 105.296875 C 328.214844 105.296875 311.484375 88.566406 311.484375 67.929688 C 311.484375 47.289062 328.214844 30.558594 348.851562 30.558594 C 369.492188 30.558594 386.222656 47.289062 386.222656 67.929688 " clip-rule="nonzero"/></clipPath><linearGradient x1="0.00000145996" gradientTransform="matrix(74.736753, 0, 0, 74.736753, 311.485163, 67.928013)" y1="0" x2="0.999993" gradientUnits="userSpaceOnUse" y2="0" id="9f0eb70316"><stop stop-opacity="1" stop-color="rgb(100%, 100%, 100%)" offset="0"/><stop stop-opacity="1" stop-color="rgb(99.996948%, 99.996948%, 99.996948%)" offset="0.03125"/><stop stop-opacity="1" stop-color="rgb(99.80011%, 99.80011%, 99.80011%)" offset="0.0625"/><stop stop-opacity="1" stop-color="rgb(99.504089%, 99.504089%, 99.504089%)" offset="0.078125"/><stop stop-opacity="1" stop-color="rgb(99.302673%, 99.302673%, 99.302673%)" offset="0.09375"/><stop stop-opacity="1" stop-color="rgb(99.101257%, 99.101257%, 99.101257%)" offset="0.109375"/><stop stop-opacity="1" stop-color="rgb(98.899841%, 98.899841%, 98.899841%)" offset="0.125"/><stop stop-opacity="1" stop-color="rgb(98.698425%, 98.698425%, 98.698425%)" offset="0.140625"/><stop stop-opacity="1" stop-color="rgb(98.498535%, 98.498535%, 98.497009%)" offset="0.15625"/><stop stop-opacity="1" stop-color="rgb(98.399353%, 98.399353%, 98.200989%)" offset="0.1875"/><stop stop-opacity="1" stop-color="rgb(98.301697%, 98.301697%, 98.002625%)" offset="0.203125"/><stop stop-opacity="1" stop-color="rgb(98.103333%, 98.103333%, 97.999573%)" offset="0.21875"/><stop stop-opacity="1" stop-color="rgb(97.901917%, 97.901917%, 97.900391%)" offset="0.234375"/><stop stop-opacity="1" stop-color="rgb(97.7005%, 97.7005%, 97.7005%)" offset="0.25"/><stop stop-opacity="1" stop-color="rgb(97.447205%, 97.447205%, 97.447205%)" offset="0.28125"/><stop stop-opacity="1" stop-color="rgb(97.10083%, 97.10083%, 97.10083%)" offset="0.3125"/><stop stop-opacity="1" stop-color="rgb(96.80481%, 96.80481%, 96.80481%)" offset="0.328125"/><stop stop-opacity="1" stop-color="rgb(96.603394%, 96.603394%, 96.603394%)" offset="0.34375"/><stop stop-opacity="1" stop-color="rgb(96.50116%, 96.50116%, 96.401978%)" offset="0.359375"/><stop stop-opacity="1" stop-color="rgb(96.499634%, 96.499634%, 96.200562%)" offset="0.375"/><stop stop-opacity="1" stop-color="rgb(96.398926%, 96.398926%, 95.99762%)" offset="0.390625"/><stop stop-opacity="1" stop-color="rgb(96.19751%, 96.19751%, 95.797729%)" offset="0.40625"/><stop stop-opacity="1" stop-color="rgb(95.901489%, 95.901489%, 95.698547%)" offset="0.4375"/><stop stop-opacity="1" stop-color="rgb(95.605469%, 95.605469%, 95.600891%)" offset="0.453125"/><stop stop-opacity="1" stop-color="rgb(95.402527%, 95.402527%, 95.402527%)" offset="0.46875"/><stop stop-opacity="1" stop-color="rgb(95.201111%, 95.201111%, 95.201111%)" offset="0.484375"/><stop stop-opacity="1" stop-color="rgb(94.999695%, 94.999695%, 94.999695%)" offset="0.5"/><stop stop-opacity="1" stop-color="rgb(94.898987%, 94.898987%, 94.798279%)" offset="0.515625"/><stop stop-opacity="1" stop-color="rgb(94.897461%, 94.897461%, 94.596863%)" offset="0.53125"/><stop stop-opacity="1" stop-color="rgb(94.700623%, 94.700623%, 94.300842%)" offset="0.5625"/><stop stop-opacity="1" stop-color="rgb(94.404602%, 94.404602%, 94.004822%)" offset="0.578125"/><stop stop-opacity="1" stop-color="rgb(94.203186%, 94.203186%, 93.803406%)" offset="0.59375"/><stop stop-opacity="1" stop-color="rgb(94.00177%, 94.00177%, 93.701172%)" offset="0.609375"/><stop stop-opacity="1" stop-color="rgb(93.800354%, 93.800354%, 93.699646%)" offset="0.625"/><stop stop-opacity="1" stop-color="rgb(93.598938%, 93.598938%, 93.598938%)" offset="0.640625"/><stop stop-opacity="1" stop-color="rgb(93.399048%, 93.399048%, 93.397522%)" offset="0.65625"/><stop stop-opacity="1" stop-color="rgb(93.299866%, 93.299866%, 93.101501%)" offset="0.6875"/><stop stop-opacity="1" stop-color="rgb(93.202209%, 93.202209%, 92.805481%)" offset="0.703125"/><stop stop-opacity="1" stop-color="rgb(93.003845%, 93.003845%, 92.602539%)" offset="0.71875"/><stop stop-opacity="1" stop-color="rgb(92.800903%, 92.800903%, 92.425537%)" offset="0.734375"/><stop stop-opacity="1" stop-color="rgb(92.599487%, 92.599487%, 92.274475%)" offset="0.75"/><stop stop-opacity="1" stop-color="rgb(92.422485%, 92.422485%, 92.098999%)" offset="0.765625"/><stop stop-opacity="1" stop-color="rgb(92.271423%, 92.271423%, 91.897583%)" offset="0.78125"/><stop stop-opacity="1" stop-color="rgb(92.001343%, 92.001343%, 91.601562%)" offset="0.8125"/><stop stop-opacity="1" stop-color="rgb(91.705322%, 91.705322%, 91.401672%)" offset="0.828125"/><stop stop-opacity="1" stop-color="rgb(91.503906%, 91.503906%, 91.398621%)" offset="0.84375"/><stop stop-opacity="1" stop-color="rgb(91.400146%, 91.400146%, 91.299438%)" offset="0.859375"/><stop stop-opacity="1" stop-color="rgb(91.398621%, 91.398621%, 91.099548%)" offset="0.875"/><stop stop-opacity="1" stop-color="rgb(91.297913%, 91.297913%, 90.898132%)" offset="0.890625"/><stop stop-opacity="1" stop-color="rgb(91.096497%, 91.096497%, 90.696716%)" offset="0.90625"/><stop stop-opacity="1" stop-color="rgb(90.800476%, 90.800476%, 90.400696%)" offset="0.9375"/><stop stop-opacity="1" stop-color="rgb(90.504456%, 90.504456%, 90.104675%)" offset="0.953125"/><stop stop-opacity="1" stop-color="rgb(90.30304%, 90.30304%, 89.903259%)" offset="0.96875"/><stop stop-opacity="1" stop-color="rgb(90.101624%, 90.101624%, 89.701843%)" offset="0.984375"/><stop stop-opacity="1" stop-color="rgb(89.900208%, 89.900208%, 89.500427%)" offset="1"/></linearGradient><clipPath id="cacbbba00d"><path d="M 329.898438 48.972656 L 367.808594 48.972656 L 367.808594 86.882812 L 329.898438 86.882812 Z M 329.898438 48.972656 " clip-rule="nonzero"/></clipPath><clipPath id="1c571e1ce4"><path d="M 367.808594 67.929688 C 367.808594 78.398438 359.320312 86.882812 348.851562 86.882812 C 338.386719 86.882812 329.898438 78.398438 329.898438 67.929688 C 329.898438 57.460938 338.386719 48.972656 348.851562 48.972656 C 359.320312 48.972656 367.808594 57.460938 367.808594 67.929688 Z M 367.808594 67.929688 " clip-rule="nonzero"/></clipPath><clipPath id="7f8d466e50"><path d="M 367.808594 67.929688 C 367.808594 78.398438 359.320312 86.882812 348.851562 86.882812 C 338.386719 86.882812 329.898438 78.398438 329.898438 67.929688 C 329.898438 57.460938 338.386719 48.972656 348.851562 48.972656 C 359.320312 48.972656 367.808594 57.460938 367.808594 67.929688 " clip-rule="nonzero"/></clipPath><linearGradient x1="0.00000122725" gradientTransform="matrix(37.909944, 0, 0, 37.909944, 329.89858, 67.928013)" y1="0" x2="1.000003" gradientUnits="userSpaceOnUse" y2="0" id="f68342f90b"><stop stop-opacity="1" stop-color="rgb(100%, 100%, 100%)" offset="0"/><stop stop-opacity="1" stop-color="rgb(99.996948%, 99.996948%, 99.996948%)" offset="0.03125"/><stop stop-opacity="1" stop-color="rgb(99.80011%, 99.80011%, 99.80011%)" offset="0.0625"/><stop stop-opacity="1" stop-color="rgb(99.504089%, 99.504089%, 99.504089%)" offset="0.078125"/><stop stop-opacity="1" stop-color="rgb(99.302673%, 99.302673%, 99.302673%)" offset="0.09375"/><stop stop-opacity="1" stop-color="rgb(99.101257%, 99.101257%, 99.101257%)" offset="0.109375"/><stop stop-opacity="1" stop-color="rgb(98.899841%, 98.899841%, 98.899841%)" offset="0.125"/><stop stop-opacity="1" stop-color="rgb(98.698425%, 98.698425%, 98.698425%)" offset="0.140625"/><stop stop-opacity="1" stop-color="rgb(98.498535%, 98.498535%, 98.497009%)" offset="0.15625"/><stop stop-opacity="1" stop-color="rgb(98.399353%, 98.399353%, 98.200989%)" offset="0.1875"/><stop stop-opacity="1" stop-color="rgb(98.301697%, 98.301697%, 98.002625%)" offset="0.203125"/><stop stop-opacity="1" stop-color="rgb(98.103333%, 98.103333%, 97.999573%)" offset="0.21875"/><stop stop-opacity="1" stop-color="rgb(97.901917%, 97.901917%, 97.900391%)" offset="0.234375"/><stop stop-opacity="1" stop-color="rgb(97.7005%, 97.7005%, 97.7005%)" offset="0.25"/><stop stop-opacity="1" stop-color="rgb(97.447205%, 97.447205%, 97.447205%)" offset="0.28125"/><stop stop-opacity="1" stop-color="rgb(97.10083%, 97.10083%, 97.10083%)" offset="0.3125"/><stop stop-opacity="1" stop-color="rgb(96.80481%, 96.80481%, 96.80481%)" offset="0.328125"/><stop stop-opacity="1" stop-color="rgb(96.603394%, 96.603394%, 96.603394%)" offset="0.34375"/><stop stop-opacity="1" stop-color="rgb(96.50116%, 96.50116%, 96.401978%)" offset="0.359375"/><stop stop-opacity="1" stop-color="rgb(96.499634%, 96.499634%, 96.200562%)" offset="0.375"/><stop stop-opacity="1" stop-color="rgb(96.398926%, 96.398926%, 95.99762%)" offset="0.390625"/><stop stop-opacity="1" stop-color="rgb(96.19751%, 96.19751%, 95.797729%)" offset="0.40625"/><stop stop-opacity="1" stop-color="rgb(95.901489%, 95.901489%, 95.698547%)" offset="0.4375"/><stop stop-opacity="1" stop-color="rgb(95.605469%, 95.605469%, 95.600891%)" offset="0.453125"/><stop stop-opacity="1" stop-color="rgb(95.402527%, 95.402527%, 95.402527%)" offset="0.46875"/><stop stop-opacity="1" stop-color="rgb(95.201111%, 95.201111%, 95.201111%)" offset="0.484375"/><stop stop-opacity="1" stop-color="rgb(94.999695%, 94.999695%, 94.999695%)" offset="0.5"/><stop stop-opacity="1" stop-color="rgb(94.898987%, 94.898987%, 94.798279%)" offset="0.515625"/><stop stop-opacity="1" stop-color="rgb(94.897461%, 94.897461%, 94.596863%)" offset="0.53125"/><stop stop-opacity="1" stop-color="rgb(94.700623%, 94.700623%, 94.300842%)" offset="0.5625"/><stop stop-opacity="1" stop-color="rgb(94.404602%, 94.404602%, 94.004822%)" offset="0.578125"/><stop stop-opacity="1" stop-color="rgb(94.203186%, 94.203186%, 93.803406%)" offset="0.59375"/><stop stop-opacity="1" stop-color="rgb(94.00177%, 94.00177%, 93.701172%)" offset="0.609375"/><stop stop-opacity="1" stop-color="rgb(93.800354%, 93.800354%, 93.699646%)" offset="0.625"/><stop stop-opacity="1" stop-color="rgb(93.598938%, 93.598938%, 93.598938%)" offset="0.640625"/><stop stop-opacity="1" stop-color="rgb(93.399048%, 93.399048%, 93.397522%)" offset="0.65625"/><stop stop-opacity="1" stop-color="rgb(93.299866%, 93.299866%, 93.101501%)" offset="0.6875"/><stop stop-opacity="1" stop-color="rgb(93.202209%, 93.202209%, 92.805481%)" offset="0.703125"/><stop stop-opacity="1" stop-color="rgb(93.003845%, 93.003845%, 92.602539%)" offset="0.71875"/><stop stop-opacity="1" stop-color="rgb(92.800903%, 92.800903%, 92.425537%)" offset="0.734375"/><stop stop-opacity="1" stop-color="rgb(92.599487%, 92.599487%, 92.274475%)" offset="0.75"/><stop stop-opacity="1" stop-color="rgb(92.422485%, 92.422485%, 92.098999%)" offset="0.765625"/><stop stop-opacity="1" stop-color="rgb(92.271423%, 92.271423%, 91.896057%)" offset="0.78125"/><stop stop-opacity="1" stop-color="rgb(92.001343%, 92.001343%, 91.600037%)" offset="0.8125"/><stop stop-opacity="1" stop-color="rgb(91.705322%, 91.705322%, 91.401672%)" offset="0.828125"/><stop stop-opacity="1" stop-color="rgb(91.50238%, 91.50238%, 91.398621%)" offset="0.84375"/><stop stop-opacity="1" stop-color="rgb(91.400146%, 91.400146%, 91.299438%)" offset="0.859375"/><stop stop-opacity="1" stop-color="rgb(91.398621%, 91.398621%, 91.099548%)" offset="0.875"/><stop stop-opacity="1" stop-color="rgb(91.297913%, 91.297913%, 90.898132%)" offset="0.890625"/><stop stop-opacity="1" stop-color="rgb(91.096497%, 91.096497%, 90.696716%)" offset="0.90625"/><stop stop-opacity="1" stop-color="rgb(90.800476%, 90.800476%, 90.400696%)" offset="0.9375"/><stop stop-opacity="1" stop-color="rgb(90.504456%, 90.504456%, 90.104675%)" offset="0.953125"/><stop stop-opacity="1" stop-color="rgb(90.30304%, 90.30304%, 89.903259%)" offset="0.96875"/><stop stop-opacity="1" stop-color="rgb(90.101624%, 90.101624%, 89.701843%)" offset="0.984375"/><stop stop-opacity="1" stop-color="rgb(89.900208%, 89.900208%, 89.500427%)" offset="1"/></linearGradient></defs><g fill="#2144e1" fill-opacity="1"><g transform="translate(2.107967, 154.308254)"><g><path d="M 31.175781 0 C 33.007812 0 33.957031 -0.949219 33.957031 -2.777344 L 33.957031 -35.109375 L 67.980469 -35.109375 C 69.808594 -35.109375 70.757812 -36.058594 70.757812 -37.886719 L 70.757812 -51.714844 C 70.757812 -53.542969 69.808594 -54.492188 67.980469 -54.492188 L 33.957031 -54.492188 L 33.957031 -83.636719 L 73.808594 -83.636719 C 75.640625 -83.636719 76.585938 -84.652344 76.585938 -86.414062 L 76.585938 -101.324219 C 76.585938 -103.15625 75.640625 -104.105469 73.808594 -104.105469 L 13.082031 -104.105469 C 11.25 -104.105469 10.300781 -103.15625 10.300781 -101.324219 L 10.300781 -2.777344 C 10.300781 -0.949219 11.25 0 13.082031 0 Z M 31.175781 0 "/></g></g></g><g fill="#2144e1" fill-opacity="1"><g transform="translate(76.012979, 154.308254)"><g><path d="M 34.703125 1.625 C 38.429688 1.625 42.429688 1.355469 46.699219 0.136719 C 48.390625 -0.339844 49.070312 -1.695312 48.597656 -3.390625 L 45.613281 -14.773438 C 45.140625 -16.46875 43.917969 -17.078125 42.15625 -16.605469 C 40.460938 -16.128906 38.769531 -15.996094 37.414062 -15.996094 C 33.210938 -15.996094 30.433594 -18.027344 30.433594 -22.976562 L 30.433594 -101.324219 C 30.433594 -103.15625 29.484375 -104.105469 27.652344 -104.105469 L 11.589844 -104.105469 C 9.761719 -104.105469 8.8125 -103.15625 8.8125 -101.324219 L 8.8125 -21.28125 C 8.8125 -6.304688 19.316406 1.625 34.703125 1.625 Z M 34.703125 1.625 "/></g></g></g><g fill="#2144e1" fill-opacity="1"><g transform="translate(120.707007, 154.308254)"><g><path d="M 42.96875 1.625 C 63.710938 1.625 77.738281 -10.707031 77.738281 -31.789062 L 77.738281 -72.453125 C 77.738281 -74.28125 76.789062 -75.230469 74.960938 -75.230469 L 58.898438 -75.230469 C 57.066406 -75.230469 56.117188 -74.28125 56.117188 -72.453125 L 56.117188 -32.601562 C 56.117188 -24.398438 51.917969 -17.691406 42.96875 -17.691406 C 34.296875 -17.691406 29.820312 -23.722656 29.820312 -32.601562 L 29.820312 -72.453125 C 29.820312 -74.28125 28.871094 -75.230469 27.042969 -75.230469 L 10.980469 -75.230469 C 9.148438 -75.230469 8.199219 -74.28125 8.199219 -72.453125 L 8.199219 -31.789062 C 8.199219 -10.707031 22.230469 1.625 42.96875 1.625 Z M 42.96875 1.625 "/></g></g></g><g fill="#2144e1" fill-opacity="1"><g transform="translate(199.42402, 154.308254)"><g><path d="M 25.890625 0 C 27.449219 0 28.535156 -0.746094 29.210938 -1.898438 L 44.527344 -25.144531 L 59.777344 -1.898438 C 60.660156 -0.542969 61.675781 0 63.167969 0 L 83.296875 0 C 85.535156 0 86.347656 -1.492188 84.992188 -3.320312 L 58.421875 -38.902344 L 83.027344 -71.910156 C 84.449219 -73.742188 83.636719 -75.230469 81.398438 -75.230469 L 62.488281 -75.230469 C 61.066406 -75.230469 59.980469 -74.691406 59.167969 -73.46875 L 44.527344 -52.253906 L 29.957031 -73.46875 C 29.144531 -74.691406 28.128906 -75.230469 26.636719 -75.230469 L 7.660156 -75.230469 C 5.421875 -75.230469 4.609375 -73.875 5.964844 -71.910156 L 30.769531 -38.902344 L 4.203125 -3.320312 C 2.777344 -1.492188 3.59375 0 5.828125 0 Z M 25.890625 0 "/></g></g></g><g fill="#2144e1" fill-opacity="1"><g transform="translate(281.340561, 154.308254)"><g/></g></g><g fill="#2144e1" fill-opacity="1"><g transform="translate(317.088305, 154.308254)"><g/></g></g><g fill="#2144e1" fill-opacity="1"><g transform="translate(352.836049, 154.308254)"><g/></g></g><g fill="#2144e1" fill-opacity="1"><g transform="translate(388.583794, 154.308254)"><g/></g></g><g clip-path="url(#a1e92d43e9)"><path fill="#2144e1" d="M 348.15625 108.917969 C 325.433594 108.917969 306.945312 90.433594 306.945312 67.707031 C 306.945312 44.984375 325.433594 26.496094 348.15625 26.496094 C 370.882812 26.496094 389.367188 44.984375 389.367188 67.707031 C 389.367188 90.433594 370.882812 108.917969 348.15625 108.917969 Z M 348.15625 9.355469 C 330.554688 9.355469 313.621094 17.539062 302.613281 31.265625 C 272.234375 69.15625 298.480469 124.148438 333.734375 147.972656 C 338.265625 151.035156 343.078125 154.007812 348.15625 156.097656 L 348.15625 126.0625 C 380.332031 126.0625 406.511719 99.882812 406.511719 67.707031 C 406.511719 35.53125 380.332031 9.355469 348.15625 9.355469 " fill-opacity="1" fill-rule="nonzero"/></g><g clip-path="url(#e3716e6ab6)"><path fill="#2144e1" d="M 394.34375 67.929688 C 394.34375 93.050781 373.976562 113.417969 348.851562 113.417969 C 323.730469 113.417969 303.363281 93.050781 303.363281 67.929688 C 303.363281 42.804688 323.730469 22.4375 348.851562 22.4375 C 373.976562 22.4375 394.34375 42.804688 394.34375 67.929688 " fill-opacity="1" fill-rule="nonzero"/></g><g clip-path="url(#05a8a4ccaf)"><g clip-path="url(#9d88d28191)"><g clip-path="url(#8a3ad532bf)"><path fill="url(#9f0eb70316)" d="M 311.484375 30.558594 L 311.484375 105.296875 L 386.222656 105.296875 L 386.222656 30.558594 Z M 311.484375 30.558594 " fill-rule="nonzero"/></g></g></g><path fill="#2144e1" d="M 377.828125 67.929688 C 377.828125 83.929688 364.855469 96.902344 348.851562 96.902344 C 332.851562 96.902344 319.878906 83.929688 319.878906 67.929688 C 319.878906 51.925781 332.851562 38.953125 348.851562 38.953125 C 364.855469 38.953125 377.828125 51.925781 377.828125 67.929688 " fill-opacity="1" fill-rule="nonzero"/><g clip-path="url(#cacbbba00d)"><g clip-path="url(#1c571e1ce4)"><g clip-path="url(#7f8d466e50)"><path fill="url(#f68342f90b)" d="M 329.898438 48.972656 L 329.898438 86.882812 L 367.808594 86.882812 L 367.808594 48.972656 Z M 329.898438 48.972656 " fill-rule="nonzero"/></g></g></g><path fill="#2144e1" d="M 358.285156 67.929688 C 358.285156 73.136719 354.0625 77.359375 348.851562 77.359375 C 343.644531 77.359375 339.425781 73.136719 339.425781 67.929688 C 339.425781 62.71875 343.644531 58.5 348.851562 58.5 C 354.0625 58.5 358.285156 62.71875 358.285156 67.929688 " fill-opacity="1" fill-rule="nonzero"/><g fill="#2144e1" fill-opacity="1"><g transform="translate(407.68784, 154.308254)"><g><path d="M 34.703125 1.625 C 38.429688 1.625 42.429688 1.355469 46.699219 0.136719 C 48.390625 -0.339844 49.070312 -1.695312 48.597656 -3.390625 L 45.613281 -14.773438 C 45.140625 -16.46875 43.917969 -17.078125 42.15625 -16.605469 C 40.460938 -16.128906 38.769531 -15.996094 37.414062 -15.996094 C 33.210938 -15.996094 30.433594 -18.027344 30.433594 -22.976562 L 30.433594 -101.324219 C 30.433594 -103.15625 29.484375 -104.105469 27.652344 -104.105469 L 11.589844 -104.105469 C 9.761719 -104.105469 8.8125 -103.15625 8.8125 -101.324219 L 8.8125 -21.28125 C 8.8125 -6.304688 19.316406 1.625 34.703125 1.625 Z M 34.703125 1.625 "/></g></g></g><g fill="#2144e1" fill-opacity="1"><g transform="translate(452.381868, 154.308254)"><g><path d="M 38.160156 -76.859375 C 29.617188 -76.859375 20.46875 -75.230469 12.0625 -72.519531 C 10.371094 -71.910156 9.691406 -70.828125 10.234375 -68.996094 L 14.097656 -57 C 14.640625 -55.238281 15.996094 -54.761719 17.691406 -55.441406 C 23.992188 -57.949219 30.636719 -59.507812 36.328125 -59.507812 C 44.394531 -59.507812 50.359375 -56.324219 50.359375 -47.714844 L 50.359375 -43.917969 C 45.410156 -45.34375 40.394531 -46.019531 35.652344 -46.019531 C 19.316406 -46.019531 6.167969 -37.886719 6.167969 -21.960938 C 6.167969 -6.371094 18.433594 1.625 31.855469 1.625 C 39.582031 1.625 47.851562 -1.015625 53.679688 -8.675781 L 55.710938 -2.371094 C 56.117188 -0.8125 57.203125 0 58.761719 0 L 69.269531 0 C 71.03125 0 72.046875 -0.949219 72.046875 -2.777344 L 72.046875 -48.324219 C 72.046875 -69.269531 56.527344 -76.859375 38.160156 -76.859375 Z M 37.75 -13.417969 C 32.464844 -13.417969 27.789062 -16.128906 27.789062 -22.164062 C 27.789062 -29.007812 33.683594 -31.652344 41.074219 -31.652344 C 44.054688 -31.652344 47.171875 -31.175781 50.359375 -30.433594 L 50.359375 -26.839844 C 50.359375 -16.671875 43.105469 -13.417969 37.75 -13.417969 Z M 37.75 -13.417969 "/></g></g></g><g fill="#2144e1" fill-opacity="1"><g transform="translate(525.744681, 154.308254)"><g><path d="M 47.308594 1.625 C 59.238281 1.625 70.011719 -2.914062 77.128906 -10.300781 C 78.28125 -11.523438 78.078125 -12.742188 76.65625 -14.03125 L 65.878906 -24.332031 C 64.457031 -25.550781 63.304688 -25.214844 62.015625 -23.925781 C 58.492188 -19.722656 53.273438 -17.148438 47.308594 -17.148438 C 35.71875 -17.148438 27.3125 -26.027344 27.3125 -37.617188 C 27.3125 -49.273438 35.71875 -58.085938 47.308594 -58.085938 C 53.339844 -58.085938 58.492188 -55.441406 62.015625 -51.308594 C 63.304688 -49.953125 64.589844 -49.746094 65.878906 -50.898438 L 76.65625 -61.132812 C 78.011719 -62.285156 78.214844 -63.84375 76.996094 -65.132812 C 69.742188 -72.453125 59.238281 -76.859375 47.308594 -76.859375 C 23.585938 -76.859375 5.964844 -60.59375 5.964844 -37.617188 C 5.964844 -14.640625 23.585938 1.625 47.308594 1.625 Z M 47.308594 1.625 "/></g></g></g><g fill="#2144e1" fill-opacity="1"><g transform="translate(601.344051, 154.308254)"><g><path d="M 43.988281 -76.859375 C 22.230469 -76.859375 6.234375 -61.675781 6.234375 -37.617188 C 6.234375 -13.148438 23.789062 1.625 45.140625 1.625 C 55.578125 1.625 66.351562 -2.035156 75.503906 -9.351562 C 77.199219 -10.707031 77.46875 -12.132812 76.25 -13.351562 L 68.117188 -23.585938 C 66.964844 -24.804688 65.878906 -24.875 64.386719 -23.789062 C 58.558594 -19.25 51.984375 -16.808594 45.816406 -16.808594 C 36.328125 -16.808594 27.515625 -22.707031 27.042969 -34.363281 L 77.605469 -34.363281 C 80.042969 -34.363281 80.789062 -35.378906 80.789062 -37.886719 C 80.789062 -61.675781 65.878906 -76.859375 43.988281 -76.859375 Z M 44.527344 -59.914062 C 50.765625 -59.914062 57.269531 -56.933594 58.964844 -48.390625 L 28.332031 -48.390625 C 30.769531 -57.066406 38.496094 -59.914062 44.527344 -59.914062 Z M 44.527344 -59.914062 "/></g></g></g><g fill="#2144e1" fill-opacity="1"><g transform="translate(680.738813, 154.308254)"><g><path d="M 32.601562 1.625 C 47.308594 1.625 63.03125 -3.929688 63.03125 -22.773438 C 63.03125 -35.378906 53.40625 -41.207031 44.394531 -45.207031 C 35.988281 -49.003906 28.128906 -51.105469 28.128906 -55.507812 C 28.128906 -58.558594 30.839844 -59.847656 34.90625 -59.847656 C 39.308594 -59.847656 45.476562 -58.355469 51.238281 -56.390625 C 52.933594 -55.78125 54.289062 -56.527344 54.761719 -58.21875 L 58.21875 -69.945312 C 58.832031 -71.707031 58.015625 -72.859375 56.457031 -73.335938 C 49.003906 -75.640625 41.140625 -76.859375 35.039062 -76.859375 C 20.671875 -76.859375 6.710938 -70.011719 6.710938 -52.730469 C 6.710938 -42.023438 14.503906 -36.191406 22.707031 -31.855469 C 31.71875 -27.179688 41.410156 -24.738281 41.410156 -20.605469 C 41.410156 -16.335938 37.820312 -14.980469 32.804688 -14.980469 C 27.855469 -14.980469 21.28125 -16.265625 14.773438 -18.300781 C 12.945312 -18.84375 11.859375 -18.300781 11.25 -16.671875 L 7.386719 -5.015625 C 6.84375 -3.457031 7.386719 -2.035156 9.351562 -1.558594 C 17.960938 0.542969 25.417969 1.625 32.601562 1.625 Z M 32.601562 1.625 "/></g></g></g></svg>