<svg xmlns="http://www.w3.org/2000/svg" xmlns:xlink="http://www.w3.org/1999/xlink" width="1000" zoomAndPan="magnify" viewBox="0 0 750 172.499995" height="230" preserveAspectRatio="xMidYMid meet" version="1.0"><defs><g/><clipPath id="ecfdb086b2"><path d="M 289 9.355469 L 406.78125 9.355469 L 406.78125 155.929688 L 289 155.929688 Z M 289 9.355469 " clip-rule="nonzero"/></clipPath><clipPath id="b84cf58571"><path d="M 297 17.199219 L 399.152344 17.199219 L 399.152344 118.90625 L 297 118.90625 Z M 297 17.199219 " clip-rule="nonzero"/></clipPath></defs><g fill="#ffffff" fill-opacity="1"><g transform="translate(2.107967, 154.308272)"><g><path d="M 31.175781 0 C 33.007812 0 33.957031 -0.949219 33.957031 -2.777344 L 33.957031 -35.109375 L 67.980469 -35.109375 C 69.808594 -35.109375 70.757812 -36.058594 70.757812 -37.886719 L 70.757812 -51.714844 C 70.757812 -53.542969 69.808594 -54.492188 67.980469 -54.492188 L 33.957031 -54.492188 L 33.957031 -83.636719 L 73.808594 -83.636719 C 75.640625 -83.636719 76.585938 -84.652344 76.585938 -86.414062 L 76.585938 -101.324219 C 76.585938 -103.15625 75.640625 -104.105469 73.808594 -104.105469 L 13.082031 -104.105469 C 11.25 -104.105469 10.300781 -103.15625 10.300781 -101.324219 L 10.300781 -2.777344 C 10.300781 -0.949219 11.25 0 13.082031 0 Z M 31.175781 0 "/></g></g></g><g fill="#ffffff" fill-opacity="1"><g transform="translate(76.012988, 154.308272)"><g><path d="M 34.703125 1.625 C 38.429688 1.625 42.429688 1.355469 46.699219 0.136719 C 48.390625 -0.339844 49.070312 -1.695312 48.597656 -3.390625 L 45.613281 -14.773438 C 45.140625 -16.46875 43.917969 -17.078125 42.15625 -16.605469 C 40.460938 -16.128906 38.769531 -15.996094 37.414062 -15.996094 C 33.210938 -15.996094 30.433594 -18.027344 30.433594 -22.976562 L 30.433594 -101.324219 C 30.433594 -103.15625 29.484375 -104.105469 27.652344 -104.105469 L 11.589844 -104.105469 C 9.761719 -104.105469 8.8125 -103.15625 8.8125 -101.324219 L 8.8125 -21.28125 C 8.8125 -6.304688 19.316406 1.625 34.703125 1.625 Z M 34.703125 1.625 "/></g></g></g><g fill="#ffffff" fill-opacity="1"><g transform="translate(120.707022, 154.308272)"><g><path d="M 42.96875 1.625 C 63.710938 1.625 77.738281 -10.707031 77.738281 -31.789062 L 77.738281 -72.453125 C 77.738281 -74.28125 76.789062 -75.230469 74.960938 -75.230469 L 58.898438 -75.230469 C 57.066406 -75.230469 56.117188 -74.28125 56.117188 -72.453125 L 56.117188 -32.601562 C 56.117188 -24.398438 51.917969 -17.691406 42.96875 -17.691406 C 34.296875 -17.691406 29.820312 -23.722656 29.820312 -32.601562 L 29.820312 -72.453125 C 29.820312 -74.28125 28.871094 -75.230469 27.042969 -75.230469 L 10.980469 -75.230469 C 9.148438 -75.230469 8.199219 -74.28125 8.199219 -72.453125 L 8.199219 -31.789062 C 8.199219 -10.707031 22.230469 1.625 42.96875 1.625 Z M 42.96875 1.625 "/></g></g></g><g fill="#ffffff" fill-opacity="1"><g transform="translate(199.424045, 154.308272)"><g><path d="M 25.890625 0 C 27.449219 0 28.535156 -0.746094 29.210938 -1.898438 L 44.527344 -25.144531 L 59.777344 -1.898438 C 60.660156 -0.542969 61.675781 0 63.167969 0 L 83.296875 0 C 85.535156 0 86.347656 -1.492188 84.992188 -3.320312 L 58.421875 -38.902344 L 83.027344 -71.910156 C 84.449219 -73.742188 83.636719 -75.230469 81.398438 -75.230469 L 62.488281 -75.230469 C 61.066406 -75.230469 59.980469 -74.691406 59.167969 -73.46875 L 44.527344 -52.253906 L 29.957031 -73.46875 C 29.144531 -74.691406 28.128906 -75.230469 26.636719 -75.230469 L 7.660156 -75.230469 C 5.421875 -75.230469 4.609375 -73.875 5.964844 -71.910156 L 30.769531 -38.902344 L 4.203125 -3.320312 C 2.777344 -1.492188 3.59375 0 5.828125 0 Z M 25.890625 0 "/></g></g></g><g fill="#ffffff" fill-opacity="1"><g transform="translate(281.340597, 154.308272)"><g/></g></g><g fill="#ffffff" fill-opacity="1"><g transform="translate(317.088345, 154.308272)"><g/></g></g><g fill="#ffffff" fill-opacity="1"><g transform="translate(352.836094, 154.308272)"><g/></g></g><g fill="#ffffff" fill-opacity="1"><g transform="translate(388.583843, 154.308272)"><g/></g></g><g clip-path="url(#ecfdb086b2)"><path fill="#ffffff" d="M 348.164062 108.925781 C 325.441406 108.925781 306.949219 90.4375 306.949219 67.710938 C 306.949219 44.984375 325.441406 26.496094 348.164062 26.496094 C 370.890625 26.496094 389.378906 44.984375 389.378906 67.710938 C 389.378906 90.4375 370.890625 108.925781 348.164062 108.925781 Z M 348.164062 9.355469 C 330.558594 9.355469 313.625 17.539062 302.621094 31.265625 C 272.238281 69.160156 298.484375 124.152344 333.742188 147.980469 C 338.273438 151.042969 343.085938 154.015625 348.164062 156.105469 L 348.164062 126.066406 C 380.34375 126.066406 406.519531 99.890625 406.519531 67.710938 C 406.519531 35.53125 380.34375 9.355469 348.164062 9.355469 " fill-opacity="1" fill-rule="nonzero"/></g><g clip-path="url(#b84cf58571)"><path fill="#ffffff" d="M 348.011719 119.230469 C 320.121094 119.21875 297.40625 96.789062 297.0625 68.875 C 296.71875 40.355469 319.679688 17.199219 348.121094 17.226562 C 376.40625 17.25 399.105469 40.121094 399.070312 68.492188 C 399.046875 96.46875 376.109375 119.257812 348.011719 119.230469 Z M 348.074219 28.355469 C 326.246094 28.339844 308.253906 46.199219 308.21875 67.914062 C 308.179688 90.160156 325.886719 108.015625 348.023438 108.089844 C 369.902344 108.164062 387.890625 90.257812 387.917969 68.40625 C 387.941406 46.269531 370.148438 28.378906 348.074219 28.355469 Z M 377.132812 68.210938 C 377.132812 84.480469 364.171875 97.304688 347.742188 97.304688 C 331.914062 97.304688 318.941406 84.160156 318.953125 68.160156 C 318.964844 52.015625 332.039062 39.113281 348.367188 39.125 C 364.183594 39.152344 377.144531 52.261719 377.132812 68.210938 Z M 365.792969 68.457031 C 365.792969 58.800781 357.835938 50.746094 348.304688 50.746094 C 338.257812 50.746094 330.378906 58.59375 330.378906 68.566406 C 330.378906 78.316406 338.359375 86.152344 348.292969 86.152344 C 357.824219 86.140625 365.792969 78.097656 365.792969 68.457031 Z M 348.046875 60.535156 C 343.816406 60.535156 340.363281 63.992188 340.363281 68.234375 C 340.363281 72.511719 343.816406 75.945312 348.121094 75.921875 C 352.390625 75.894531 355.734375 72.5 355.734375 68.199219 C 355.734375 63.917969 352.339844 60.535156 348.046875 60.535156 Z M 348.046875 60.535156 " fill-opacity="1" fill-rule="nonzero"/></g><g fill="#ffffff" fill-opacity="1"><g transform="translate(407.687845, 154.308272)"><g><path d="M 34.703125 1.625 C 38.429688 1.625 42.429688 1.355469 46.699219 0.136719 C 48.390625 -0.339844 49.070312 -1.695312 48.597656 -3.390625 L 45.613281 -14.773438 C 45.140625 -16.46875 43.917969 -17.078125 42.15625 -16.605469 C 40.460938 -16.128906 38.769531 -15.996094 37.414062 -15.996094 C 33.210938 -15.996094 30.433594 -18.027344 30.433594 -22.976562 L 30.433594 -101.324219 C 30.433594 -103.15625 29.484375 -104.105469 27.652344 -104.105469 L 11.589844 -104.105469 C 9.761719 -104.105469 8.8125 -103.15625 8.8125 -101.324219 L 8.8125 -21.28125 C 8.8125 -6.304688 19.316406 1.625 34.703125 1.625 Z M 34.703125 1.625 "/></g></g></g><g fill="#ffffff" fill-opacity="1"><g transform="translate(452.381878, 154.308272)"><g><path d="M 38.160156 -76.859375 C 29.617188 -76.859375 20.46875 -75.230469 12.0625 -72.519531 C 10.371094 -71.910156 9.691406 -70.828125 10.234375 -68.996094 L 14.097656 -57 C 14.640625 -55.238281 15.996094 -54.761719 17.691406 -55.441406 C 23.992188 -57.949219 30.636719 -59.507812 36.328125 -59.507812 C 44.394531 -59.507812 50.359375 -56.324219 50.359375 -47.714844 L 50.359375 -43.917969 C 45.410156 -45.34375 40.394531 -46.019531 35.652344 -46.019531 C 19.316406 -46.019531 6.167969 -37.886719 6.167969 -21.960938 C 6.167969 -6.371094 18.433594 1.625 31.855469 1.625 C 39.582031 1.625 47.851562 -1.015625 53.679688 -8.675781 L 55.710938 -2.371094 C 56.117188 -0.8125 57.203125 0 58.761719 0 L 69.269531 0 C 71.03125 0 72.046875 -0.949219 72.046875 -2.777344 L 72.046875 -48.324219 C 72.046875 -69.269531 56.527344 -76.859375 38.160156 -76.859375 Z M 37.75 -13.417969 C 32.464844 -13.417969 27.789062 -16.128906 27.789062 -22.164062 C 27.789062 -29.007812 33.683594 -31.652344 41.074219 -31.652344 C 44.054688 -31.652344 47.171875 -31.175781 50.359375 -30.433594 L 50.359375 -26.839844 C 50.359375 -16.671875 43.105469 -13.417969 37.75 -13.417969 Z M 37.75 -13.417969 "/></g></g></g><g fill="#ffffff" fill-opacity="1"><g transform="translate(525.744701, 154.308272)"><g><path d="M 47.308594 1.625 C 59.238281 1.625 70.011719 -2.914062 77.128906 -10.300781 C 78.28125 -11.523438 78.078125 -12.742188 76.65625 -14.03125 L 65.878906 -24.332031 C 64.457031 -25.550781 63.304688 -25.214844 62.015625 -23.925781 C 58.492188 -19.722656 53.273438 -17.148438 47.308594 -17.148438 C 35.71875 -17.148438 27.3125 -26.027344 27.3125 -37.617188 C 27.3125 -49.273438 35.71875 -58.085938 47.308594 -58.085938 C 53.339844 -58.085938 58.492188 -55.441406 62.015625 -51.308594 C 63.304688 -49.953125 64.589844 -49.746094 65.878906 -50.898438 L 76.65625 -61.132812 C 78.011719 -62.285156 78.214844 -63.84375 76.996094 -65.132812 C 69.742188 -72.453125 59.238281 -76.859375 47.308594 -76.859375 C 23.585938 -76.859375 5.964844 -60.59375 5.964844 -37.617188 C 5.964844 -14.640625 23.585938 1.625 47.308594 1.625 Z M 47.308594 1.625 "/></g></g></g><g fill="#ffffff" fill-opacity="1"><g transform="translate(601.34408, 154.308272)"><g><path d="M 43.988281 -76.859375 C 22.230469 -76.859375 6.234375 -61.675781 6.234375 -37.617188 C 6.234375 -13.148438 23.789062 1.625 45.140625 1.625 C 55.578125 1.625 66.351562 -2.035156 75.503906 -9.351562 C 77.199219 -10.707031 77.46875 -12.132812 76.25 -13.351562 L 68.117188 -23.585938 C 66.964844 -24.804688 65.878906 -24.875 64.386719 -23.789062 C 58.558594 -19.25 51.984375 -16.808594 45.816406 -16.808594 C 36.328125 -16.808594 27.515625 -22.707031 27.042969 -34.363281 L 77.605469 -34.363281 C 80.042969 -34.363281 80.789062 -35.378906 80.789062 -37.886719 C 80.789062 -61.675781 65.878906 -76.859375 43.988281 -76.859375 Z M 44.527344 -59.914062 C 50.765625 -59.914062 57.269531 -56.933594 58.964844 -48.390625 L 28.332031 -48.390625 C 30.769531 -57.066406 38.496094 -59.914062 44.527344 -59.914062 Z M 44.527344 -59.914062 "/></g></g></g><g fill="#ffffff" fill-opacity="1"><g transform="translate(680.738852, 154.308272)"><g><path d="M 32.601562 1.625 C 47.308594 1.625 63.03125 -3.929688 63.03125 -22.773438 C 63.03125 -35.378906 53.40625 -41.207031 44.394531 -45.207031 C 35.988281 -49.003906 28.128906 -51.105469 28.128906 -55.507812 C 28.128906 -58.558594 30.839844 -59.847656 34.90625 -59.847656 C 39.308594 -59.847656 45.476562 -58.355469 51.238281 -56.390625 C 52.933594 -55.78125 54.289062 -56.527344 54.761719 -58.21875 L 58.21875 -69.945312 C 58.832031 -71.707031 58.015625 -72.859375 56.457031 -73.335938 C 49.003906 -75.640625 41.140625 -76.859375 35.039062 -76.859375 C 20.671875 -76.859375 6.710938 -70.011719 6.710938 -52.730469 C 6.710938 -42.023438 14.503906 -36.191406 22.707031 -31.855469 C 31.71875 -27.179688 41.410156 -24.738281 41.410156 -20.605469 C 41.410156 -16.335938 37.820312 -14.980469 32.804688 -14.980469 C 27.855469 -14.980469 21.28125 -16.265625 14.773438 -18.300781 C 12.945312 -18.84375 11.859375 -18.300781 11.25 -16.671875 L 7.386719 -5.015625 C 6.84375 -3.457031 7.386719 -2.035156 9.351562 -1.558594 C 17.960938 0.542969 25.417969 1.625 32.601562 1.625 Z M 32.601562 1.625 "/></g></g></g></svg>